<svg width="20" height="20" viewBox="0 0 20 20" fill="none" xmlns="http://www.w3.org/2000/svg">
<path d="M0 10C0 4.47715 4.47715 0 10 0C15.5228 0 20 4.47715 20 10C20 15.5228 15.5228 20 10 20C4.47715 20 0 15.5228 0 10Z" fill="black"/>
<path d="M15.6451 9.99938C15.6451 10.6446 15.4939 11.2543 15.2247 11.7947C14.5727 13.102 13.2302 13.9988 11.6803 13.9988H8.43727C8.41133 13.9988 8.42296 13.9703 8.43727 13.949C8.51329 13.837 8.81649 13.6326 8.81649 13.1073C8.81649 12.5821 8.65103 12.319 8.57143 12.2124C8.55533 12.191 8.5446 12.1608 8.57143 12.1608H11.6803C12.6632 12.1608 13.6443 10.9912 13.6443 9.99938C13.6443 9.00753 12.6632 7.83794 11.6803 7.83794H8.56427C8.53923 7.83794 8.55175 7.81127 8.56427 7.78994C8.63672 7.6673 8.81559 7.32246 8.81559 6.9083C8.81559 6.39994 8.64476 6.15287 8.56427 6.05244C8.54817 6.03111 8.53744 6 8.56517 6H11.6812C13.2311 6 14.5736 6.89675 15.2256 8.2041C15.4948 8.74357 15.646 9.35326 15.646 9.99938H15.6451Z" fill="white"/>
<path fill-rule="evenodd" clip-rule="evenodd" d="M6 9.53442C6 8.9194 6.50175 8.41992 7.12155 8.41992C7.74136 8.41992 8.2431 8.91851 8.2431 9.53442C8.2431 9.85526 8.10626 10.145 7.88714 10.3485C7.64566 10.5734 7.42564 10.856 7.42564 11.1848V11.2355C7.42564 11.5643 7.64566 11.8469 7.88714 12.0718C8.10626 12.2753 8.2431 12.5642 8.2431 12.8859C8.2431 13.5009 7.74136 14.0004 7.12155 14.0004C6.50175 14.0004 6 13.5018 6 12.8859C6 12.5651 6.13684 12.2753 6.35596 12.0718C6.59745 11.8469 6.81746 11.5643 6.81746 11.2355V11.1848C6.81746 10.856 6.59745 10.5734 6.35596 10.3485C6.13684 10.145 6 9.85614 6 9.53442Z" fill="#FC802D"/>
<path d="M7.1195 7.91437C7.65148 7.91437 8.08274 7.48582 8.08274 6.95719C8.08274 6.42855 7.65148 6 7.1195 6C6.58751 6 6.15625 6.42855 6.15625 6.95719C6.15625 7.48582 6.58751 7.91437 7.1195 7.91437Z" fill="#FC802D"/>
</svg>
